<?xml version="1.0" encoding="utf-8"?>
<!-- Generator: Adobe Illustrator 23.0.2, SVG Export Plug-In . SVG Version: 6.00 Build 0)  -->
<svg version="1.1" id="Layer_1" xmlns="http://www.w3.org/2000/svg" xmlns:xlink="http://www.w3.org/1999/xlink" x="0px" y="0px"
	 viewBox="0 0 283.5 218.7" style="enable-background:new 0 0 283.5 218.7;" xml:space="preserve">
<style type="text/css">
	.st0{fill:#090A0A;}
</style>
<title>logo</title>
<path class="st0" d="M193.8,164.7l-26.4-38.3v-9.4h-5.1l-9.6-26.7v-2.8h2.5v-3h-3.9l-7.2-66.7h2.4v-6.7h-2.4V8h-2.3h-2.4v3.1h-2.5
	v6.7h2.5l-7.5,66.7h-4.1v3h2.6v2.8l-9.9,26.7h-5.3v9.4l-27.4,38.4h18.4l-0.3-3.3c0,0,12.8-30.5,35.9-28c22.3-2.5,34.6,28,34.6,28
	l-0.3,3.3H193.8z"/>
<path class="st0" d="M9.5,214.7c0.2,0.1,0.4,0.3,0.7,0.4c0.2,0.1,0.5,0.2,0.7,0.3c0.3,0.1,0.6,0.1,0.9,0.2c0.4,0,0.7,0.1,1.1,0.1
	c0.6,0,1.3-0.2,1.8-0.4c0.6-0.3,1.3-0.7,1.8-1.1c0.5-0.4,1-0.9,1.5-1.4c0.4-0.4,0.7-0.9,1-1.5c0.1-0.2,0.2-0.3,0.4-0.4
	c0.1-0.1,0.3-0.1,0.4-0.2c0.1,0.1,0.2,0.2,0.2,0.3c0,0.1,0,0.2,0,0.4c0,0.6-0.2,1.2-0.5,1.7c-0.3,0.5-0.6,1-1,1.5
	c-0.5,0.6-1.1,1.2-1.7,1.8c-0.6,0.5-1.2,0.9-1.8,1.3c-0.7,0.4-1.4,0.6-2.1,0.8c-0.8,0.2-1.7,0.3-2.5,0.2c-1.5,0-3-0.4-4.4-1.1
	c-1.3-0.7-2.4-1.7-3.3-2.9c-0.9-1.2-1.6-2.6-2-4c-0.5-1.4-0.7-3-0.7-4.5c0-1.6,0.3-3.2,0.8-4.7c0.5-1.5,1.3-2.9,2.3-4.1
	c1-1.2,2.2-2.2,3.6-2.9c1.5-0.8,3.2-1.1,4.8-1.1c0.7,0,1.4,0,2.1,0.1c0.7,0.1,1.4,0.3,2,0.5c0.7,0.2,1.3,0.5,1.9,0.9
	c0.6,0.4,1.1,0.9,1.5,1.5c0.1,0.2,0.3,0.4,0.4,0.6c0.1,0.2,0.3,0.3,0.4,0.5c0.1,0.2,0.2,0.3,0.3,0.5c0.1,0.2,0.1,0.4,0.1,0.6
	c0,0.3-0.1,0.6-0.2,0.9c-0.1,0.3-0.3,0.5-0.5,0.6c-0.2,0.2-0.5,0.3-0.8,0.4c-0.3,0.1-0.6,0.2-0.9,0.1c-0.4,0-0.8-0.2-1.1-0.5
	c-0.3-0.3-0.6-0.7-0.7-1.1c-0.2-0.5-0.5-0.9-0.7-1.5c-0.3-0.5-0.6-1-1-1.5c-0.4-0.5-1-0.9-1.6-1.1c-0.8-0.3-1.6-0.5-2.4-0.4
	c-0.5,0-1.1,0.1-1.6,0.3c-0.5,0.2-1,0.5-1.4,0.8c-0.4,0.3-0.8,0.7-1.2,1.1c-0.3,0.4-0.6,0.8-0.8,1.3c-0.4,0.9-0.6,1.9-0.7,2.9
	c-0.1,1-0.1,1.9-0.1,2.9c0,1.1,0.1,2.2,0.2,3.2c0.1,1,0.4,2,0.8,3c0.4,0.9,0.9,1.8,1.5,2.6C7.7,213.5,8.5,214.2,9.5,214.7z"/>
<path class="st0" d="M23.7,191c0,0,0.1-0.1,0.1-0.1l0.2-0.3l0.8-0.4l0.5-0.3l1.1-0.7c0.5-0.3,0.9-0.6,1.3-0.9
	c0.4-0.3,0.8-0.7,1.1-1.1c0.3-0.3,0.5-0.8,0.5-1.2c0-0.1,0-0.1,0-0.2c0-0.1-0.1-0.1-0.1-0.1c0,0,0,0,0,0c-0.2,0-0.3,0.1-0.5,0.1
	c-0.2,0-0.3,0-0.5,0c-0.2,0-0.4,0-0.6,0c-0.2,0-0.4,0-0.5-0.1c-0.1,0-0.2,0-0.4-0.1c-0.2-0.1-0.3-0.2-0.4-0.2
	c-0.1-0.1-0.3-0.2-0.4-0.3c-0.1-0.1-0.2-0.2-0.3-0.3c-0.4-0.4-0.6-1-0.6-1.6c0-0.7,0.2-1.5,0.7-2c0.5-0.5,1.3-0.8,2-0.7
	c0.6,0,1.1,0.1,1.6,0.4c0.5,0.2,0.9,0.6,1.2,1c0.3,0.4,0.6,0.9,0.8,1.4c0.2,0.5,0.3,1.1,0.3,1.6c0.1,1.9-0.9,3.7-2.5,4.8l-0.9,0.6
	c-0.3,0.2-0.6,0.4-1,0.5c-0.5,0.2-0.9,0.3-1.4,0.5c-0.4,0.1-0.8,0.2-1.2,0.2c-0.1,0-0.3,0-0.4,0C24.1,191.2,23.9,191.1,23.7,191z"/>
<path class="st0" d="M57.5,201.8H39.4c-0.1,0-0.3,0.1-0.3,0.2c0,0.1-0.1,0.3-0.1,0.5c-0.1,0.3-0.1,0.7-0.1,1c0,0.5,0,1.1,0,1.7
	c0,0.6,0.1,1.3,0.2,1.9c0.2,0.6,0.3,1.2,0.5,1.8c0.6,1.9,1.8,3.7,3.4,4.9c1.8,1.2,4,1.8,6.1,1.7c0.4,0,0.8-0.1,1.2-0.2
	c0.5-0.1,0.9-0.3,1.4-0.5c0.5-0.2,0.9-0.5,1.3-0.8c0.4-0.3,0.8-0.6,1.1-0.9c0.2-0.2,0.4-0.4,0.6-0.7l0.6-1c0.1-0.1,0.2-0.1,0.3-0.2
	c0.1,0,0.2-0.1,0.3-0.1c0.3,0,0.5,0.1,0.6,0.3c0.1,0.2,0.2,0.5,0.2,0.7c0,0.1,0,0.2-0.1,0.3c-0.1,0.2-0.1,0.3-0.2,0.4
	c-0.1,0.2-0.2,0.3-0.3,0.4c-0.1,0.1-0.1,0.2-0.2,0.3c-0.7,1-1.5,1.9-2.5,2.6c-1.1,0.8-2.3,1.4-3.6,1.8c-0.5,0.1-1.1,0.2-1.6,0.2
	c-0.7,0.1-1.6,0.1-2.5,0.1c-0.8,0-1.6-0.1-2.4-0.3c-0.8-0.2-1.6-0.5-2.4-0.9c-0.8-0.4-1.5-0.8-2.2-1.3c-0.6-0.5-1.2-1-1.7-1.6
	c-0.9-1.2-1.6-2.5-2.1-3.9c-0.5-1.4-0.7-2.9-0.7-4.4c0-0.6,0-1.1,0.1-1.7c0.1-0.5,0.2-1,0.3-1.5c0.2-0.5,0.3-1,0.6-1.5
	c0.2-0.5,0.5-1,0.8-1.5c0.6-0.9,1.2-1.8,2-2.6c0.7-0.8,1.5-1.4,2.4-2c0.9-0.6,1.9-1,2.9-1.3c1.1-0.3,2.2-0.5,3.3-0.5
	c1,0,2.1,0.1,3.1,0.3c1.1,0.2,2.2,0.7,3.1,1.3c0.3,0.2,0.7,0.6,1.3,1c0.6,0.5,1.1,1,1.6,1.6c0.5,0.6,1,1.2,1.4,1.8
	c0.4,0.5,0.6,1.2,0.6,1.8c0,0.1,0,0.3-0.1,0.4C57.7,201.8,57.6,201.8,57.5,201.8z M40.1,200.4h11.6c0.3,0,0.5,0,0.5-0.1
	c0.1-0.1,0.1-0.2,0.1-0.2c0-0.4-0.1-0.8-0.3-1.2c-0.2-0.4-0.4-0.8-0.7-1.2c-0.3-0.3-0.6-0.7-0.9-1c-0.2-0.3-0.5-0.5-0.7-0.7
	c-0.5-0.4-1.1-0.7-1.7-0.9c-0.6-0.1-1.3-0.2-1.9-0.2h-0.8c-0.2,0-0.5,0-0.7,0.1c-0.2,0-0.5,0.1-0.7,0.2c-0.3,0.1-0.5,0.2-0.8,0.3
	c-0.4,0.2-0.8,0.4-1.1,0.7c-0.4,0.4-0.8,0.7-1.1,1.2c-0.3,0.4-0.6,0.9-0.8,1.4c-0.2,0.5-0.3,1-0.3,1.5
	C39.6,200.3,39.8,200.4,40.1,200.4L40.1,200.4z"/>
<path class="st0" d="M61.1,214.6c0-0.5,0.1-1,0.3-1.4c0.2-0.4,0.4-0.8,0.5-1.3c0-0.1,0-0.3,0.1-0.4c0-0.2,0.1-0.4,0.2-0.7
	s0.1-0.5,0.2-0.7c0-0.2,0.1-0.3,0.1-0.4c0.1-0.2,0.2-0.4,0.4-0.4c0.3,0,0.4,0.2,0.4,0.5c0,0.2,0,0.5,0,0.7c0,0.3,0,0.5,0.1,0.8
	c0.2,0.8,0.4,1.5,0.7,2.3c0.3,0.7,0.7,1.3,1.1,1.9c0.5,0.5,1,1,1.7,1.3c0.7,0.3,1.5,0.5,2.3,0.5c0.6,0,1.3-0.1,1.8-0.3
	c0.6-0.2,1.1-0.5,1.6-0.8c0.5-0.4,0.8-0.8,1.1-1.3c0.3-0.5,0.4-1.2,0.4-1.8c0.1-1.7-0.6-3.3-2-4.2c-0.6-0.5-1.3-0.8-2.1-1.1
	c-0.8-0.3-1.6-0.6-2.4-0.8c-0.8-0.3-1.6-0.6-2.4-0.9c-0.8-0.3-1.4-0.7-2.1-1.3c-0.6-0.6-1.1-1.2-1.5-2c-0.4-0.9-0.6-2-0.6-3
	c0-0.7,0.1-1.3,0.4-1.9c0.2-0.4,0.4-0.9,0.7-1.3c0.3-0.4,0.6-0.8,1-1.2c0.4-0.4,0.9-0.8,1.4-1.1c0.6-0.3,1.1-0.6,1.8-0.8
	c1.4-0.4,2.9-0.4,4.3,0.1c0.8,0.2,1.5,0.6,2.1,1.1c0.2,0.1,0.4,0.3,0.6,0.5c0.1,0.2,0.3,0.3,0.6,0.3c0.2,0,0.4-0.1,0.6-0.2
	c0.2-0.2,0.3-0.4,0.5-0.6c0,0,0.1-0.1,0.1-0.1h0.1c0,0,0.1,0,0.1,0.1c0,0.1,0.1,0.2,0.1,0.3c0,0.1,0,0.2,0.1,0.3c0,0.1,0,0.2,0,0.2
	c0,0.2,0,0.3-0.1,0.5c0,0.3-0.1,0.6-0.2,1c-0.1,0.4-0.2,0.8-0.3,1.3c-0.1,0.5-0.2,0.9-0.3,1.3c-0.1,0.4-0.2,0.7-0.3,1
	c-0.1,0.3-0.2,0.4-0.3,0.4c0,0-0.1,0-0.1,0c-0.1,0-0.1-0.1-0.1-0.1c-0.1-0.2-0.2-0.4-0.3-0.6c-0.1-0.2-0.1-0.3-0.1-0.5
	c0-0.2,0-0.3,0-0.5c0-0.2,0-0.4-0.1-0.5c0-0.1-0.1-0.3-0.1-0.4c0-0.1-0.1-0.2-0.1-0.3c-0.2-0.5-0.4-1-0.7-1.4
	c-0.3-0.4-0.6-0.8-1-1.1c-0.2-0.2-0.5-0.5-0.8-0.7c-0.2-0.2-0.5-0.3-0.7-0.4c-0.3-0.1-0.6-0.1-0.9-0.1h-1.3c-0.5,0-0.9,0.1-1.3,0.3
	c-0.4,0.2-0.8,0.5-1.1,0.9c-0.3,0.4-0.5,0.8-0.7,1.2c-0.2,0.5-0.2,1-0.2,1.5c0,0.7,0.2,1.5,0.6,2.1c0.4,0.6,0.9,1,1.5,1.4
	c0.7,0.4,1.4,0.7,2.1,0.9l2.4,0.8c0.8,0.3,1.6,0.6,2.4,1c0.8,0.4,1.5,0.9,2.1,1.4c0.6,0.6,1.1,1.4,1.4,2.2c0.4,1,0.6,2.2,0.6,3.3
	c0,0.9-0.2,1.8-0.7,2.6c-0.5,0.9-1,1.7-1.7,2.4c-0.3,0.4-0.7,0.7-1.2,0.9c-0.5,0.3-1.1,0.5-1.6,0.7c-0.6,0.2-1.2,0.4-1.9,0.5
	c-0.6,0.1-1.3,0.2-1.9,0.2c-0.7,0-1.5-0.2-2.2-0.4c-0.8-0.3-1.6-0.6-2.3-1c-0.7-0.4-1.3-0.8-1.9-1.3
	C61.4,215.6,61.2,215.1,61.1,214.6z"/>
<path class="st0" d="M83.3,211.1c0-2.4,0.1-4.8,0.2-7.2c0.1-2.4,0.2-4.8,0.2-7.2c-0.6,0-1.3,0-1.9,0.1c-0.6,0.1-1.2,0.1-1.8,0.1
	c-0.2,0-0.4,0-0.6-0.1c-0.2,0-0.3-0.2-0.3-0.3c0,0,0,0,0,0c0-0.1,0-0.1,0.1-0.1l0.2-0.2c0.9-0.8,1.7-1.6,2.6-2.3
	c0.8-0.8,1.6-1.6,2.4-2.4c0.2-0.3,0.5-0.5,0.7-0.8c0.2-0.3,0.5-0.6,0.8-0.9l0.8-1c0.3-0.3,0.6-0.6,0.8-0.9c0.1-0.1,0.2-0.1,0.3-0.1
	c0.1,0,0.3,0.1,0.3,0.3l-0.3,5.7c0,0.3,0.1,0.5,0.2,0.5l6.7-0.5c0.1,0,0.3,0,0.4,0.1c0.1,0.1,0.2,0.2,0.2,0.3c0,0.1,0.1,0.3,0.1,0.4
	c0,0.1,0,0.2,0,0.4c0,0.3,0,0.7-0.2,1c-0.1,0.2-0.5,0.3-1,0.3h-6.3c-0.1,0-0.2,0.1-0.3,0.3c0,0.1,0,0.2,0,0.2V211
	c0,0.7,0.2,1.3,0.4,1.9c0.3,0.7,0.8,1.4,1.3,1.9c0.3,0.3,0.7,0.5,1.1,0.7c0.4,0.2,0.9,0.3,1.3,0.3c0.8,0,1.5-0.1,2.2-0.3
	c0.5-0.2,1-0.5,1.4-0.9c0.3-0.3,0.6-0.7,0.9-1.2c0.2-0.4,0.5-0.8,0.8-1.2c0.1-0.2,0.1-0.3,0.2-0.3c0.1,0,0.1,0.1,0.2,0.2
	c0,0.1,0,0.2,0,0.3c0,0.5-0.2,1-0.4,1.4c-0.3,0.6-0.6,1.1-1,1.6c-0.4,0.5-0.9,1-1.4,1.5c-0.4,0.4-0.9,0.7-1.5,0.9
	c-0.9,0.4-1.8,0.5-2.8,0.5c-1,0-2.1-0.2-3-0.7c-0.8-0.4-1.6-1-2.2-1.7c-0.6-0.7-1.1-1.5-1.4-2.3C83.5,212.8,83.3,212,83.3,211.1z"/>
<path class="st0" d="M109.9,218.1c0-0.1,0.1-0.3,0.1-0.4c0.1-0.1,0.2-0.2,0.3-0.3c0.1-0.1,0.3-0.1,0.4-0.1c0.1,0,0.2,0,0.3,0h2.6
	c0.4,0,0.6-0.3,0.6-0.8v-28c0-0.6-0.1-1.3-0.2-1.9c-0.1-0.4-0.3-0.7-0.6-1c-0.2-0.2-0.5-0.4-0.8-0.4c-0.3,0-0.6-0.1-0.9-0.1
	c-0.2,0-0.4,0-0.6,0c-0.2,0-0.3,0.1-0.5,0.1l-0.5,0.1c-0.2,0-0.3,0-0.5,0c-0.1,0-0.3,0-0.4-0.1c-0.1-0.1-0.2-0.2-0.2-0.3
	c0-0.2,0.1-0.5,0.4-0.5c0.3-0.2,0.6-0.3,0.9-0.4c0.3-0.1,0.6-0.2,0.9-0.3l0.9-0.2c0.3-0.1,0.6-0.1,0.9-0.2l1.7-0.6
	c0.4-0.1,0.6-0.2,0.8-0.3l0.5-0.3c0.2-0.1,0.4-0.2,0.8-0.4c0.4-0.2,0.9-0.3,1.3-0.3c0.1,0,0.2,0,0.3,0c0.1,0,0.3,0.1,0.4,0.2
	c0.3,0.4,0.4,0.9,0.3,1.3v33.4c0,0.4,0.1,0.6,0.3,0.7c0.2,0.1,0.4,0.1,0.7,0.1c0.4,0,0.8,0,1.1-0.1c0.4-0.1,0.8-0.1,1.1-0.1
	c0.2,0,0.4,0.1,0.6,0.2c0.2,0.1,0.3,0.3,0.3,0.5c0,0.2,0,0.3-0.1,0.5c-0.1,0.1-0.2,0.2-0.4,0.2H122c-0.6,0-1.2,0-1.8,0
	c-0.5,0-1.1-0.1-1.6-0.1l-1.5-0.1c-0.5,0-1,0-1.6,0c-0.6,0-1.3,0-1.9,0.1c-0.6,0.1-1.2,0.1-1.7,0.1h-1.4c-0.1,0-0.2-0.1-0.3-0.1
	C110,218.3,109.9,218.2,109.9,218.1z"/>
<path class="st0" d="M126,191c0,0,0.1-0.1,0.1-0.1c0.1-0.1,0.1-0.2,0.2-0.3l0.7-0.4l0.5-0.3l1.1-0.7c0.5-0.3,0.9-0.6,1.3-0.9
	c0.4-0.3,0.8-0.7,1.1-1.1c0.3-0.3,0.5-0.7,0.5-1.2c0,0,0-0.1,0-0.2c0-0.1-0.1-0.1-0.2-0.1c-0.2,0-0.3,0.1-0.5,0.1
	c-0.2,0-0.3,0-0.5,0c-0.2,0-0.4,0-0.6,0c-0.2,0-0.4,0-0.5-0.1c-0.1,0-0.2,0-0.3-0.1c-0.2-0.1-0.3-0.2-0.4-0.2
	c-0.1-0.1-0.3-0.2-0.4-0.3c-0.1-0.1-0.2-0.2-0.3-0.3c-0.4-0.4-0.6-1-0.6-1.6c0-0.7,0.2-1.5,0.7-2c0.5-0.5,1.3-0.8,2-0.7
	c0.6,0,1.1,0.1,1.6,0.4c0.5,0.2,0.9,0.6,1.2,1c0.3,0.4,0.6,0.9,0.8,1.4c0.2,0.5,0.3,1.1,0.3,1.6c0,1-0.2,1.9-0.6,2.7
	c-0.4,0.8-1.1,1.5-1.8,2l-0.9,0.6c-0.3,0.2-0.7,0.4-1.1,0.5c-0.5,0.2-0.9,0.3-1.4,0.5c-0.4,0.1-0.8,0.2-1.2,0.2c-0.1,0-0.3,0-0.4,0
	C126.4,191.2,126.2,191.1,126,191z"/>
<path class="st0" d="M149.2,214.6l-0.1,0.1c-0.2,0.1-0.3,0.2-0.4,0.4l-0.9,0.8l-0.9,0.8c-0.2,0.2-0.3,0.3-0.5,0.4
	c-0.6,0.3-1.2,0.6-1.9,0.9c-0.8,0.3-1.6,0.4-2.4,0.4c-0.6,0-1.3-0.1-1.9-0.3c-0.6-0.2-1.2-0.5-1.7-0.9c-0.5-0.5-0.9-1-1.2-1.7
	c-0.3-0.9-0.5-1.8-0.5-2.7c0-0.5,0.1-1,0.3-1.5c0.2-0.6,0.5-1.2,1-1.7c0.5-0.5,1-1,1.6-1.4c0.6-0.4,1.3-0.7,1.9-1
	c0.8-0.3,1.5-0.6,2.3-0.8c0.9-0.2,1.8-0.5,2.8-0.7l0.8-0.2c0.3-0.1,0.5-0.1,0.8-0.2l0.7-0.2c0.1,0,0.2-0.1,0.3-0.2l0.2-0.2
	c0.1-0.1,0.1-0.2,0.1-0.4c0.1-0.4,0.1-0.8,0.2-1.3c0.1-0.4,0.1-0.9,0.1-1.3c0-0.4,0.1-0.9,0.1-1.3s0-0.8,0-1.1
	c0-0.6-0.1-1.3-0.4-1.9c-0.5-1.2-1.4-2.1-2.6-2.5c-0.6-0.2-1.2-0.4-1.9-0.4c-0.6,0-1.1,0.1-1.6,0.4c-0.6,0.2-1.1,0.6-1.5,1
	c-0.5,0.4-0.8,0.9-1.1,1.4c-0.3,0.5-0.4,1-0.4,1.6c0,0.2,0.1,0.4,0.2,0.6c0.1,0.2,0.3,0.3,0.4,0.4c0.2,0.1,0.3,0.3,0.4,0.5
	c0.1,0.2,0.2,0.4,0.2,0.7c0,0.6-0.2,1.2-0.7,1.6c-0.5,0.4-1.1,0.6-1.7,0.6c-0.4,0-0.7-0.1-1.1-0.2c-0.3-0.2-0.6-0.4-0.8-0.6
	c-0.2-0.3-0.4-0.6-0.5-0.9c-0.1-0.3-0.2-0.7-0.2-1c0-0.4,0.1-0.8,0.3-1.1c0.2-0.4,0.4-0.8,0.7-1.2c0.3-0.4,0.6-0.7,0.9-1.1
	c0.3-0.3,0.6-0.6,0.8-0.8c0.4-0.4,0.7-0.7,1.1-1c0.4-0.3,0.7-0.5,1.1-0.8c0.3-0.2,0.6-0.3,0.9-0.5c0.3-0.1,0.6-0.2,0.9-0.3
	c0.3-0.1,0.4-0.1,0.7-0.2c0.3-0.1,0.6-0.2,1-0.3s0.8-0.2,1.2-0.2c0.4-0.1,0.8-0.1,1.2-0.1c0.8,0,1.6,0.1,2.4,0.3
	c0.8,0.2,1.5,0.6,2.1,1.1c0.6,0.5,1.1,1.1,1.5,1.9c0.4,0.8,0.6,1.8,0.6,2.7c0,1.2-0.1,2.4-0.2,3.6c-0.1,1.2-0.3,2.4-0.4,3.5
	c-0.1,1.1-0.3,2.1-0.4,3.1c-0.1,0.7-0.2,1.5-0.2,2.2c0,0.4,0,0.7,0.1,1.1c0,0.4,0.1,0.9,0.3,1.3c0.1,0.4,0.3,0.7,0.6,1
	c0.3,0.3,0.6,0.5,1,0.4c0.5,0,1-0.1,1.4-0.3c0.5-0.2,0.9-0.5,1.2-0.8c0.4-0.3,0.7-0.7,1-1.1c0.3-0.4,0.5-0.8,0.7-1.2
	c0-0.1,0.1-0.1,0.1-0.2c0-0.1,0.1-0.1,0.2-0.1c0.1,0,0.1,0.1,0.1,0.2v0.2c0,0.8-0.1,1.6-0.4,2.3c-0.3,0.8-0.7,1.5-1.2,2.1
	c-0.6,0.6-1.2,1.2-2,1.5c-0.9,0.4-1.8,0.6-2.8,0.6c-0.2,0-0.4,0-0.7,0c-0.2,0-0.5-0.1-0.7-0.2c-0.4-0.2-0.8-0.4-1.1-0.7
	c-0.3-0.3-0.5-0.5-0.8-0.8c-0.2-0.3-0.4-0.6-0.6-0.9L149.2,214.6z M140.9,213.7c0,0.4,0.1,0.8,0.3,1.1c0.2,0.3,0.4,0.6,0.7,0.8
	c0.3,0.2,0.6,0.4,1,0.4c0.4,0.1,0.7,0.1,1.1,0.1c0.4,0,0.9,0,1.3-0.1c0.4-0.1,0.8-0.2,1.2-0.4c0.4-0.1,0.7-0.3,1.1-0.5
	c0.3-0.2,0.6-0.3,0.9-0.5c0.4-0.3,0.6-0.7,0.7-1.2c0-1.2,0.1-2.4,0.2-3.6c0.2-1.1,0.2-2.2,0.2-3.3c0-0.1,0-0.3,0-0.4
	c0-0.1-0.1-0.2-0.2-0.2c0,0,0,0,0,0c-0.2,0-0.3,0-0.4,0.1l-0.4,0.1c-0.8,0.3-1.5,0.6-2.2,0.9s-1.4,0.7-2.2,1c-0.5,0.3-0.9,0.6-1.3,1
	c-0.4,0.4-0.7,0.9-1,1.4c-0.3,0.5-0.5,1.1-0.6,1.6C141,212.6,140.9,213.1,140.9,213.7L140.9,213.7z"/>
<path class="st0" d="M164.8,216.3l0.4-17.3c0-0.2,0-0.4-0.1-0.6c-0.1-0.2-0.2-0.4-0.2-0.6c-0.1-0.2-0.2-0.4-0.4-0.5
	c-0.1-0.1-0.3-0.2-0.4-0.2c-0.3,0-0.6,0-0.9,0.1c-0.2,0.1-0.5,0.1-0.7,0.2l-0.5,0.2c-0.1,0.1-0.2,0.1-0.4,0.1
	c-0.2,0-0.3-0.1-0.4-0.3c0,0,0-0.1,0-0.1c0-0.2,0.1-0.3,0.2-0.4c0.1-0.1,0.3-0.3,0.5-0.4c0.2-0.1,0.3-0.2,0.5-0.3l0.4-0.2
	c0.6-0.2,1.1-0.3,1.6-0.5c0.5-0.2,1-0.3,1.4-0.5c0.4-0.2,0.9-0.4,1.4-0.6l1.5-0.8c0.2-0.1,0.4-0.1,0.6-0.1c0.2,0,0.3,0.1,0.3,0.3
	c0,0.2,0,0.4,0,0.6c0,0.3-0.1,0.6-0.1,0.8s-0.1,0.6-0.1,0.8s0,0.5,0,0.6v0.5c0,0.3,0,0.6,0.1,0.8c0.1,0.3,0.1,0.4,0.3,0.4
	s0.3-0.1,0.4-0.4c0.1-0.3,0.3-0.6,0.6-0.8c0.5-0.6,1.1-1.2,1.7-1.7c0.7-0.5,1.4-1,2.1-1.4c0.7-0.4,1.5-0.7,2.3-0.9
	c0.8-0.2,1.6-0.4,2.4-0.4c0.3,0,0.7,0,1,0.1c0.4,0.1,0.8,0.2,1.2,0.4c0.5,0.2,0.9,0.5,1.3,0.9c0.5,0.5,0.9,1,1.2,1.6
	c0.1,0.1,0.1,0.3,0.2,0.4l0.1,0.4c0,0.1,0.1,0.3,0.1,0.5c0.1,0.2,0.1,0.4,0.2,0.7c0.1,0.3,0.2,0.5,0.4,0.5c0.1,0,0.3-0.2,0.4-0.5
	c0.1-0.4,0.3-0.9,0.6-1.2c0.2-0.2,0.4-0.5,0.6-0.7c0.9-1,1.9-1.8,3.1-2.4c1.2-0.6,2.5-1,3.9-0.9c0.7,0,1.4,0.1,2.1,0.4
	c0.6,0.3,1.2,0.7,1.6,1.2c0.5,0.5,0.9,1.1,1.2,1.7c0.3,0.6,0.6,1.3,0.8,2c0.4,1.3,0.6,2.7,0.6,4.1v9.2c0,0.8,0,1.5-0.1,2.3
	c-0.1,0.7-0.1,1.3-0.1,2c-0.1,0.5,0.3,0.9,0.8,0.9c0,0,0.1,0,0.1,0h2.9c0.1,0,0.3,0.1,0.3,0.2c0,0.1,0,0.2,0.1,0.3
	c0,0.1,0,0.2,0,0.2c0,0.1,0,0.2,0,0.4s0,0.2-0.1,0.3s-0.2,0.2-0.6,0.2c-0.3,0-0.7,0-1.1,0h-2.5c-0.9,0-1.6,0-2.3,0l-1.7,0.1
	l-1.4,0.1c-0.4,0-0.9,0-1.3,0h-1c-0.5,0-0.8-0.2-0.8-0.7c0-0.2,0-0.3,0.1-0.4c0.1-0.1,0.1-0.2,0.2-0.3c0.1-0.1,0.2-0.1,0.4-0.1
	l0.6-0.1l0.7-0.1h0.4c0.1,0,0.2,0,0.3,0h0.7c0.3,0,0.4-0.2,0.4-0.5v-15c0-0.7-0.1-1.3-0.2-2c-0.1-0.6-0.3-1.1-0.6-1.6
	c-0.3-0.5-0.6-0.8-1.1-1.1c-0.5-0.3-1.1-0.4-1.7-0.4c-0.9,0-1.9,0.1-2.7,0.4c-0.8,0.3-1.5,0.7-2,1.2c-0.6,0.5-1,1.1-1.3,1.8
	c-0.3,0.7-0.5,1.5-0.5,2.3v14.2c0,0.2,0.1,0.4,0.2,0.5c0.1,0.1,0.3,0.2,0.4,0.3c0.2,0.1,0.4,0.1,0.6,0.2l0.5,0.1l0.6,0.1h0.4h0.3
	c0.1,0,0.2,0,0.3,0.1c0.1,0,0.2,0.1,0.3,0.3c0,0.1,0,0.2,0,0.4c0,0.2-0.1,0.3-0.2,0.4c-0.2,0.1-0.3,0.2-0.5,0.2
	c-0.2,0-0.4,0.1-0.6,0.1h-1.9h-1.4h-3h-1.4h-1.2h-0.8c-0.3,0-0.6,0-0.9-0.1c-0.3-0.1-0.5-0.4-0.4-0.7c0-0.4,0.3-0.7,0.8-0.7
	c0.1,0,0.3,0,0.4,0h0.4c0.2,0,0.5,0,0.7,0c0.2,0,0.5-0.1,0.7-0.1c0.2,0,0.4-0.1,0.5-0.3c0.1-0.1,0.2-0.3,0.2-0.4l0.3-15.6
	c0-0.4-0.1-0.8-0.2-1.2c-0.1-0.4-0.4-0.8-0.6-1.2c-0.3-0.4-0.6-0.7-0.9-1c-0.4-0.3-0.8-0.6-1.2-0.7c-0.4-0.2-0.9-0.3-1.4-0.3
	c-0.6,0-1.2,0.1-1.8,0.3c-0.6,0.2-1.1,0.4-1.6,0.8c-0.5,0.4-1,0.8-1.4,1.3c-0.4,0.5-0.8,1-1,1.5c-0.1,0.3-0.2,0.6-0.3,0.9
	c-0.1,0.3-0.2,0.7-0.1,1l-0.4,14.2c0,0.3,0,0.5,0.1,0.8c0,0.2,0.2,0.3,0.4,0.3h3.1c0.1,0,0.2,0,0.3,0.2c0.1,0.3,0,0.6-0.1,0.9
	c-0.1,0.2-0.3,0.3-0.6,0.3h-2.3H168h-1.8h-1.2c-0.4,0-1,0-1.5,0c-0.5,0-1.1,0-1.8,0h-0.7c-0.1,0-0.2-0.1-0.3-0.1
	c-0.1-0.1-0.1-0.2-0.1-0.4c0-0.2,0.1-0.3,0.1-0.4c0.1-0.1,0.3-0.2,0.4-0.2c0.2-0.1,0.5-0.1,0.8-0.1h0.8h1c0.2,0,0.5,0,0.7-0.1
	C164.7,216.8,164.8,216.5,164.8,216.3z"/>
<path class="st0" d="M205.7,206.3c0-1.7,0.3-3.4,0.9-4.9c0.6-1.4,1.5-2.7,2.6-3.7c1.1-1,2.5-1.8,3.9-2.3c1.6-0.6,3.3-0.8,5-0.8
	c0.4,0,0.8,0,1.2,0.1c0.4,0.1,0.9,0.2,1.3,0.3c0.4,0.1,0.9,0.3,1.3,0.5c0.4,0.2,0.8,0.4,1.2,0.6c1.9,1,3.5,2.5,4.6,4.4
	c1,1.9,1.6,4,1.5,6.2c0,1.5-0.3,3.1-0.8,4.5c-0.6,1.5-1.4,2.8-2.5,3.9c-1.1,1.1-2.4,2-3.8,2.5c-1.4,0.5-3,0.8-4.5,0.8
	c-1.1,0-2.3-0.1-3.4-0.3c-1.2-0.2-2.3-0.7-3.3-1.5c-1.7-1.1-3-2.7-4-4.5C206.1,210.3,205.7,208.3,205.7,206.3z M210.2,206.4
	c0,0.7,0.1,1.5,0.2,2.2c0.1,0.8,0.3,1.6,0.6,2.4c0.3,0.8,0.6,1.6,1,2.3c0.4,0.7,0.8,1.4,1.4,2c0.5,0.6,1.2,1,1.9,1.4
	c0.7,0.3,1.6,0.5,2.4,0.5c0.5,0,1,0,1.5-0.2c0.4-0.1,0.8-0.3,1.1-0.5c0.3-0.2,0.7-0.5,0.9-0.7c0.3-0.3,0.6-0.6,0.8-0.9
	c0.5-0.6,0.9-1.3,1.2-2c0.3-0.7,0.6-1.5,0.9-2.3c0.2-0.8,0.4-1.5,0.5-2.3c0.1-0.7,0.1-1.5,0.1-2.2c0-0.7-0.1-1.5-0.2-2.2
	c-0.1-0.8-0.4-1.6-0.7-2.4c-0.3-0.8-0.7-1.6-1.2-2.4c-0.5-0.8-1-1.5-1.7-2.1c-0.5-0.5-1-0.8-1.6-1.1c-0.4-0.2-0.9-0.3-1.4-0.3
	c-0.7,0-1.4,0.1-2.1,0.2c-0.6,0.1-1.1,0.4-1.6,0.7c-0.5,0.3-0.9,0.8-1.3,1.2c-0.4,0.6-0.8,1.1-1.2,1.8c-0.6,1-1.1,2.1-1.3,3.3
	C210.2,204.1,210.2,205.3,210.2,206.4L210.2,206.4z"/>
<path class="st0" d="M251,217.9c0-0.6,0.1-1.2,0.2-1.8c0.1-0.7,0.2-1.4,0.2-2.2c0-0.2,0-0.3-0.1-0.4c0-0.2-0.1-0.3-0.3-0.3
	c-0.1,0-0.1,0.1-0.2,0.3c-0.1,0.2-0.2,0.4-0.4,0.6c-0.5,0.6-1.1,1.2-1.7,1.7c-0.5,0.5-1.1,1-1.8,1.4c-0.6,0.4-1.3,0.8-2,1
	c-0.8,0.2-1.6,0.4-2.4,0.3c-0.8,0-1.7-0.2-2.5-0.5c-0.8-0.3-1.5-0.7-2.2-1.3c-0.4-0.3-0.8-0.7-1.1-1.1c-0.3-0.4-0.5-0.8-0.6-1.3
	c-0.2-0.5-0.3-0.9-0.3-1.4c-0.1-0.5-0.1-1-0.1-1.5v-15.2c0-0.2,0-0.5-0.1-0.7c0-0.2-0.2-0.3-0.5-0.3h-4.1c-0.2,0-0.3-0.1-0.4-0.2
	c-0.1-0.1-0.2-0.3-0.2-0.4c0-0.1,0-0.3,0.1-0.4c0-0.2,0.2-0.3,0.4-0.3h8.6c0.3,0,0.4,0.1,0.4,0.4V210c0,0.7,0.1,1.3,0.3,1.9
	c0.2,0.6,0.5,1.2,0.9,1.7c0.4,0.5,0.9,0.9,1.4,1.2c0.6,0.3,1.3,0.5,2,0.5c0.7,0,1.5-0.1,2.2-0.2c0.7-0.2,1.3-0.5,1.9-0.8
	c0.8-0.5,1.4-1.1,1.9-1.8c0.2-0.3,0.4-0.5,0.5-0.8c0.1-0.2,0.2-0.5,0.3-0.8c0.1-0.3,0.1-0.6,0.2-0.8c0-0.3,0.1-0.7,0-1l0.3-12.8
	c0,0,0-0.2,0-0.3c0-0.2,0-0.4-0.1-0.5c0-0.2-0.1-0.3-0.2-0.5c-0.1-0.1-0.2-0.2-0.4-0.2c-0.2,0-0.4,0-0.6,0.1c-0.3,0-0.7,0-1.1,0h-2
	c-0.3,0-0.6,0-0.9-0.1c-0.2,0-0.4-0.2-0.4-0.4c0,0,0,0,0,0c0-0.1,0-0.3,0-0.4c0-0.1,0.1-0.3,0.2-0.3c0.2-0.1,0.3-0.2,0.5-0.2
	c0.2,0,0.4,0,0.6,0c0.3,0,0.6,0,0.8,0l1,0.1l0.9,0.1c0.3,0,0.6,0.1,0.8,0.1h5c0.1,0,0.2,0,0.2,0.1c0,0,0,0,0,0l-0.8,20.3v0.6
	c0,0.1,0,0.1,0.1,0.2c0.1,0.3,0.2,0.6,0.4,0.8c0.2,0.3,0.5,0.4,0.8,0.4c0.2,0,0.5,0,0.7-0.1c0.3,0,0.5,0,0.7-0.1
	c0.2-0.1,0.5-0.1,0.7-0.1c0.2,0,0.4-0.1,0.5-0.1c0.2,0,0.3,0.1,0.4,0.2c0,0.1,0.1,0.2,0.1,0.4c0,0.2-0.1,0.4-0.2,0.5
	c-0.1,0.1-0.3,0.2-0.5,0.3c-0.3,0.1-0.7,0.2-1,0.2h-0.5l-0.7,0.1c-0.6,0.1-1.2,0.2-1.8,0.3c-0.6,0.1-1.2,0.3-1.7,0.5
	c-0.5,0.2-0.7,0.2-1,0.3c-0.3,0.1-0.7,0.1-1,0.1c-0.2,0-0.3-0.1-0.4-0.2C251.1,218.2,251,218,251,217.9z"/>
<path class="st0" d="M266.6,216.2v-14.1c0-0.5,0-1.1,0-1.6c0-0.5,0-1.1-0.1-1.6c0-0.4-0.1-0.9-0.3-1.3c-0.1-0.3-0.3-0.5-0.5-0.7
	c-0.5-0.2-1-0.3-1.5-0.3c-0.4,0-0.7,0-1.1,0.1c-0.3,0-0.6,0.1-0.9,0.1c-0.1,0-0.2,0-0.2-0.1c-0.1,0-0.1-0.1-0.1-0.2
	c0-0.2,0.1-0.3,0.2-0.3c0.5-0.3,1.1-0.5,1.6-0.6c0.6-0.1,1.1-0.3,1.7-0.5l1.6-0.5c0.5-0.2,1-0.4,1.5-0.7c0.3-0.1,0.6-0.3,0.9-0.5
	c0.3-0.2,0.6-0.3,1-0.3c0.1,0,0.2,0.1,0.3,0.2c0.1,0.1,0.1,0.2,0.1,0.3v1.4c0,0.1,0,0.3,0,0.5c0,0.2,0,0.4,0,0.6s0,0.4,0,0.5
	c0,0.2,0,0.3,0,0.3c0,0.1,0,0.1,0.1,0.1l0,0c0.1,0,0.2-0.1,0.3-0.2l0.3-0.4c0.1-0.2,0.2-0.4,0.4-0.6c0.2-0.2,0.4-0.5,0.6-0.7
	c0.3-0.3,0.7-0.6,1.1-0.9c0.4-0.3,0.8-0.5,1.3-0.7c0.4-0.2,0.9-0.4,1.4-0.5c0.4-0.1,0.9-0.2,1.4-0.2c0.7,0,1.3,0.1,2,0.2
	c0.7,0.1,1.3,0.3,1.9,0.6c0.6,0.3,1,0.7,1.4,1.2c0.4,0.6,0.6,1.3,0.5,2c0,0.4-0.1,0.8-0.3,1.2c-0.2,0.4-0.4,0.7-0.7,0.9
	c-0.3,0.3-0.6,0.5-1,0.6c-0.4,0.1-0.8,0.2-1.2,0.2c-0.3,0-0.6,0-0.9-0.1c-0.2,0-0.4-0.1-0.6-0.3c-0.6-0.5-1-1.2-1.1-2
	c-0.1-0.5-0.1-0.9-0.2-1.2c0-0.3-0.1-0.5-0.2-0.7c-0.1-0.2-0.3-0.3-0.6-0.4c-0.4-0.1-0.8-0.1-1.2-0.1c-0.5,0-1,0.1-1.4,0.3
	c-0.5,0.2-0.9,0.5-1.3,0.9c-0.4,0.4-0.8,0.8-1.1,1.2c-0.3,0.4-0.5,0.8-0.5,1.3c-0.1,0.4-0.1,0.8-0.1,1.2c0,0.4,0,0.9,0,1.3v15.5
	c0.1,0.2,0.3,0.4,0.6,0.4c0.3,0.1,0.6,0.1,0.9,0.1h0.4h0.6h0.5h0.3c0.3,0,0.7,0,1,0.1c0.3,0.1,0.4,0.3,0.4,0.6
	c0,0.2-0.1,0.4-0.3,0.6c-0.2,0.2-0.4,0.2-0.6,0.3c-1-0.1-1.9-0.3-2.9-0.3c-1-0.1-2-0.1-3-0.1s-2,0-2.9,0.1c-0.9,0.1-1.8,0.1-2.8,0.1
	c-0.2,0-0.5-0.1-0.7-0.2c-0.2-0.1-0.4-0.3-0.4-0.5c0-0.1,0-0.3,0.1-0.4c0.1-0.1,0.2-0.2,0.3-0.2c0.1-0.1,0.3-0.1,0.4-0.1
	c0.1,0,0.2,0,0.3-0.1c0.2,0,0.4,0,0.6,0l0.6,0.1c0.2,0,0.3,0.1,0.5,0.1c0.2,0,0.3,0,0.5,0c0.1,0,0.2,0,0.4-0.1
	c0.1-0.1,0.3-0.1,0.4-0.2c0.1-0.1,0.2-0.2,0.3-0.3C266.5,216.5,266.6,216.4,266.6,216.2z"/>
</svg>
