<svg id="Layer_2" data-name="Layer 2" xmlns="http://www.w3.org/2000/svg" width="100mm" height="74.33mm" viewBox="0 0 283.46 210.71"><defs><style>.cls-1{fill:#090a0a;}</style></defs><title>logo1</title><path class="cls-1" d="M129.14,117.6s9.84-22,6.66-21.48h5.94V84.46h-3.29l3.29-32.89V8.05H139.3v3.06h-2.53v6.66h2.53l-7.49,66.69h-4.09v3h2.63v2.77l-9.92,26.67h-5.26v9.44L87.74,164.7h18.38l-.29-3.34s12.85-30.55,35.91-28.05V118.08C135.42,117.9,129.14,117.6,129.14,117.6Z" transform="translate(0 -8.05)"/><path class="cls-1" d="M193.77,164.7l-26.44-38.33v-9.44h-5.06L152.7,90.26V87.49h2.54v-3H151.3l-7.22-66.69h2.44V11.11h-2.44V8.05h-2.34V51.57l.09-.91L145,84.46h-3.27V96.12h4.86s4.13,20.12,7.62,21.48c1.85.72-5.33.68-12.48.48v15.23c22.21-2.5,34.59,28.05,34.59,28.05l-.28,3.34Z" transform="translate(0 -8.05)"/><path class="cls-1" d="M9.47,214.71a6.43,6.43,0,0,0,.68.36,5.26,5.26,0,0,0,.73.28,5.39,5.39,0,0,0,.87.16,8.64,8.64,0,0,0,1.07.05,4.48,4.48,0,0,0,1.85-.43A10.1,10.1,0,0,0,16.5,214,11.12,11.12,0,0,0,18,212.59a7.29,7.29,0,0,0,1-1.46.84.84,0,0,1,.36-.4,1.89,1.89,0,0,1,.45-.17.45.45,0,0,1,.21.31,2.19,2.19,0,0,1,0,.36,3.26,3.26,0,0,1-.48,1.69,14.32,14.32,0,0,1-1,1.51,14.23,14.23,0,0,1-1.67,1.77,9.15,9.15,0,0,1-1.84,1.27,8.65,8.65,0,0,1-2.12.78,11.76,11.76,0,0,1-2.54.25A8.7,8.7,0,0,1,6,217.39a10.67,10.67,0,0,1-3.26-2.87,13.21,13.21,0,0,1-2-4,14.8,14.8,0,0,1-.7-4.48,14.56,14.56,0,0,1,.8-4.74,13.35,13.35,0,0,1,2.28-4.14,11.39,11.39,0,0,1,3.63-2.92,10.35,10.35,0,0,1,4.85-1.11,16.52,16.52,0,0,1,2.08.14,10.94,10.94,0,0,1,2,.49,8.13,8.13,0,0,1,1.86.94,5.63,5.63,0,0,1,1.5,1.5c.14.2.28.39.42.56s.27.34.38.51a2.49,2.49,0,0,1,.27.51,1.73,1.73,0,0,1,.11.63,1.93,1.93,0,0,1-.2.88,1.81,1.81,0,0,1-.52.64,2.21,2.21,0,0,1-.76.4,2.57,2.57,0,0,1-.87.15,1.33,1.33,0,0,1-1.06-.46,5,5,0,0,1-.75-1.13q-.36-.68-.75-1.47a6.47,6.47,0,0,0-1-1.47,5.1,5.1,0,0,0-1.56-1.13,5.59,5.59,0,0,0-2.4-.45,4.7,4.7,0,0,0-1.6.29,6,6,0,0,0-1.44.8,7.15,7.15,0,0,0-1.19,1.14,5.87,5.87,0,0,0-.84,1.32,9.75,9.75,0,0,0-.66,2.93c-.06,1-.09,1.95-.09,2.93A22.42,22.42,0,0,0,4.74,207a13.79,13.79,0,0,0,.78,3A10.56,10.56,0,0,0,7,212.61,8.49,8.49,0,0,0,9.47,214.71Z" transform="translate(0 -8.05)"/><path class="cls-1" d="M23.7,191a.39.39,0,0,0,.1-.14l.21-.27.76-.4.55-.27,1.13-.67a13.5,13.5,0,0,0,1.35-.93,6.88,6.88,0,0,0,1.12-1.1,1.87,1.87,0,0,0,.47-1.19.82.82,0,0,0,0-.18.14.14,0,0,0-.15-.13,4.11,4.11,0,0,1-.47.07,3.71,3.71,0,0,1-.47,0,5.41,5.41,0,0,1-.59,0,4.51,4.51,0,0,1-.53-.07.94.94,0,0,1-.36-.11,4,4,0,0,1-.44-.25c-.15-.11-.29-.21-.43-.33a2.29,2.29,0,0,1-.31-.29,2.22,2.22,0,0,1-.6-1.6,2.65,2.65,0,0,1,.75-2,2.75,2.75,0,0,1,2-.75,3.52,3.52,0,0,1,1.62.38,3.85,3.85,0,0,1,1.24,1,4.25,4.25,0,0,1,.78,1.4,4.85,4.85,0,0,1,.28,1.65,5.54,5.54,0,0,1-2.48,4.77l-.88.58a5.71,5.71,0,0,1-1,.53,10.69,10.69,0,0,1-1.39.46,5.29,5.29,0,0,1-1.25.16,2.34,2.34,0,0,1-.39,0A1.93,1.93,0,0,1,23.7,191Z" transform="translate(0 -8.05)"/><path class="cls-1" d="M57.5,201.83H39.44a.6.6,0,0,0-.34.21,2.2,2.2,0,0,0-.1.46,6.84,6.84,0,0,0-.1,1c0,.52,0,1.1,0,1.75a7.36,7.36,0,0,0,.23,1.89c.16.6.33,1.19.52,1.77a9.69,9.69,0,0,0,3.43,4.88,10.38,10.38,0,0,0,6.15,1.67,4.25,4.25,0,0,0,1.25-.21,9,9,0,0,0,1.36-.52,10.13,10.13,0,0,0,1.31-.76,9.37,9.37,0,0,0,1.09-.91,2.51,2.51,0,0,0,.56-.7l.57-1a.63.63,0,0,1,.28-.16.84.84,0,0,1,.32-.07.68.68,0,0,1,.64.3,1.46,1.46,0,0,1,.16.73,1,1,0,0,1-.09.35,4.54,4.54,0,0,1-.21.45,2.51,2.51,0,0,1-.26.45,2.69,2.69,0,0,1-.22.32,10.4,10.4,0,0,1-2.5,2.59,12.59,12.59,0,0,1-3.63,1.82,9.48,9.48,0,0,1-1.61.22c-.75.06-1.58.09-2.46.09a9.8,9.8,0,0,1-2.42-.31,12.65,12.65,0,0,1-2.41-.87A13.17,13.17,0,0,1,38.75,216a7.87,7.87,0,0,1-1.66-1.65A14,14,0,0,1,35,210.43a13.34,13.34,0,0,1-.67-4.38,14.59,14.59,0,0,1,.09-1.66,9.88,9.88,0,0,1,.31-1.53,10.85,10.85,0,0,1,.57-1.49,12,12,0,0,1,.83-1.5,16.48,16.48,0,0,1,2-2.61,12,12,0,0,1,2.43-2,11.18,11.18,0,0,1,2.87-1.32,11.37,11.37,0,0,1,3.31-.46,16.92,16.92,0,0,1,3.1.3,8,8,0,0,1,3.09,1.3c.31.22.75.56,1.3,1a17,17,0,0,1,1.65,1.56,11.94,11.94,0,0,1,1.41,1.81,3.47,3.47,0,0,1,.6,1.83.75.75,0,0,1-.09.39A.32.32,0,0,1,57.5,201.83Zm-17.38-1.4H51.73c.3,0,.48,0,.54-.11a.4.4,0,0,0,.09-.25,2.92,2.92,0,0,0-.3-1.23,7,7,0,0,0-.73-1.23,11.71,11.71,0,0,0-.88-1,7.81,7.81,0,0,0-.75-.72,4.27,4.27,0,0,0-1.67-.91,8.49,8.49,0,0,0-1.91-.2H45.3c-.25,0-.5,0-.74.06a6.52,6.52,0,0,0-.74.16,5.19,5.19,0,0,0-.8.31,4.7,4.7,0,0,0-1.09.73,8.63,8.63,0,0,0-1.09,1.16A7.69,7.69,0,0,0,40,198.6a3.77,3.77,0,0,0-.35,1.52C39.62,200.33,39.79,200.43,40.12,200.43Z" transform="translate(0 -8.05)"/><path class="cls-1" d="M61.1,214.61a3.17,3.17,0,0,1,.33-1.38,6.75,6.75,0,0,0,.48-1.27,2.33,2.33,0,0,1,.07-.43c0-.21.09-.45.16-.7s.11-.47.16-.68.09-.35.11-.44q.08-.36.36-.36c.28,0,.43.17.45.49a4.11,4.11,0,0,1,0,.69,3.65,3.65,0,0,0,.06.76,12.81,12.81,0,0,0,.67,2.28,7.1,7.1,0,0,0,1.12,1.89,4.93,4.93,0,0,0,1.67,1.3,5.18,5.18,0,0,0,2.31.48,5.74,5.74,0,0,0,1.85-.3,5,5,0,0,0,1.58-.83,4.08,4.08,0,0,0,1.1-1.34A4,4,0,0,0,74,213a4.87,4.87,0,0,0-2-4.25,8.25,8.25,0,0,0-2.06-1.1c-.78-.28-1.57-.56-2.38-.82s-1.6-.56-2.37-.88a7.4,7.4,0,0,1-2.06-1.26,6,6,0,0,1-1.46-2,6.9,6.9,0,0,1-.57-3,4.25,4.25,0,0,1,.4-1.92,13.26,13.26,0,0,1,.7-1.31,7.89,7.89,0,0,1,1-1.19,6.91,6.91,0,0,1,1.39-1.09,7.88,7.88,0,0,1,1.76-.78,6.8,6.8,0,0,1,4.33.09,6.61,6.61,0,0,1,2.08,1.12c.19.15.38.33.57.51a.83.83,0,0,0,.57.29.76.76,0,0,0,.6-.25,3,3,0,0,0,.47-.65.25.25,0,0,1,.12-.07h.12s.09,0,.12.14.05.2.07.31a1.91,1.91,0,0,1,.06.33c0,.12,0,.2,0,.25a4.92,4.92,0,0,1-.07.52c0,.29-.1.64-.18,1s-.16.83-.26,1.29-.2.87-.31,1.26-.23.71-.34,1-.22.38-.33.38a.18.18,0,0,1-.1,0c-.07,0-.11-.07-.11-.11a2.83,2.83,0,0,1-.28-.61,2.67,2.67,0,0,1-.12-.49,2.61,2.61,0,0,1,0-.48,2.48,2.48,0,0,0-.1-.55c0-.14-.06-.27-.1-.4a1.59,1.59,0,0,0-.13-.35,7.77,7.77,0,0,0-.7-1.39,6.36,6.36,0,0,0-1-1.11,6.06,6.06,0,0,0-.8-.68,2.45,2.45,0,0,0-.74-.37,4.58,4.58,0,0,0-.92-.14l-1.27,0a2.8,2.8,0,0,0-1.35.32,3.38,3.38,0,0,0-1.06.86,4.32,4.32,0,0,0-.69,1.25,4.6,4.6,0,0,0-.25,1.48,3.57,3.57,0,0,0,.57,2.1,4.65,4.65,0,0,0,1.48,1.37,10.66,10.66,0,0,0,2.1.94l2.39.8a23.44,23.44,0,0,1,2.39,1,8,8,0,0,1,2.1,1.44A6.42,6.42,0,0,1,76.7,208a8.51,8.51,0,0,1,.56,3.28,5.57,5.57,0,0,1-.68,2.59,12.42,12.42,0,0,1-1.67,2.44,4.34,4.34,0,0,1-1.19.94,9.91,9.91,0,0,1-1.64.74,12.61,12.61,0,0,1-1.88.47,11.51,11.51,0,0,1-1.92.17,7,7,0,0,1-2.16-.41,14.54,14.54,0,0,1-2.35-1,10.86,10.86,0,0,1-1.9-1.31A1.83,1.83,0,0,1,61.1,214.61Z" transform="translate(0 -8.05)"/><path class="cls-1" d="M83.32,211.13q0-3.66.18-7.2t.23-7.23a12.2,12.2,0,0,0-1.94.15A11.53,11.53,0,0,1,80,197a2.76,2.76,0,0,1-.57-.06.32.32,0,0,1-.29-.36.19.19,0,0,1,.06-.15l.2-.18c.89-.79,1.74-1.57,2.57-2.35s1.63-1.58,2.41-2.42c.23-.26.47-.54.72-.85s.52-.62.79-.94l.83-1c.29-.32.57-.63.85-.9a.38.38,0,0,1,.29-.1c.15,0,.26.1.31.31l-.31,5.67c0,.32.07.49.2.49l6.74-.49a.45.45,0,0,1,.36.13.69.69,0,0,1,.19.32,2.57,2.57,0,0,1,.06.4c0,.14,0,.25,0,.36a2.19,2.19,0,0,1-.19,1c-.12.21-.46.32-1,.32H87.88c-.14,0-.24.08-.31.26a.52.52,0,0,0,0,.23V211a4.77,4.77,0,0,0,.43,1.9,6.05,6.05,0,0,0,1.34,1.91,3.41,3.41,0,0,0,1.1.7,3.35,3.35,0,0,0,1.3.28,6,6,0,0,0,2.25-.35,4.11,4.11,0,0,0,1.37-.89,4.81,4.81,0,0,0,.87-1.17,8.57,8.57,0,0,1,.79-1.2c.07-.17.15-.26.23-.26s.15.06.17.17a1,1,0,0,1,0,.27,3.47,3.47,0,0,1-.38,1.41,8.82,8.82,0,0,1-1,1.62,9.55,9.55,0,0,1-1.37,1.47,5,5,0,0,1-1.49.94,7.15,7.15,0,0,1-2.76.54,6.45,6.45,0,0,1-3-.67,7.2,7.2,0,0,1-2.23-1.71,7.57,7.57,0,0,1-1.4-2.32A7,7,0,0,1,83.32,211.13Z" transform="translate(0 -8.05)"/><path class="cls-1" d="M109.91,218.09a.59.59,0,0,1,.15-.4,1,1,0,0,1,.34-.26,2.7,2.7,0,0,1,.4-.14,1.74,1.74,0,0,1,.34,0h2.61c.42,0,.63-.27.63-.8v-28a6,6,0,0,0-.24-1.92,2.26,2.26,0,0,0-.6-1,1.51,1.51,0,0,0-.82-.4,6.8,6.8,0,0,0-.9-.06,3.24,3.24,0,0,0-.65,0,5.2,5.2,0,0,0-.52.11l-.48.12a2.54,2.54,0,0,1-.49,0,1,1,0,0,1-.43-.09.33.33,0,0,1-.2-.32.57.57,0,0,1,.37-.54,3.93,3.93,0,0,1,.86-.45c.3-.11.6-.21.9-.29l.93-.22a7.21,7.21,0,0,0,.91-.25l1.7-.58c.36-.13.64-.24.85-.34l.53-.27c.16-.09.41-.21.76-.36a3.74,3.74,0,0,1,1.33-.26,2,2,0,0,1,.34,0,.54.54,0,0,1,.36.22,2,2,0,0,1,.32,1.34v33.43c0,.36.1.58.31.66a1.87,1.87,0,0,0,.68.11,6.72,6.72,0,0,0,1.13-.09,6.93,6.93,0,0,1,1.14-.09,1,1,0,0,1,.6.18.63.63,0,0,1,.26.55,1,1,0,0,1-.13.5.41.41,0,0,1-.37.24H122c-.64,0-1.24,0-1.78,0s-1.09-.05-1.61-.09l-1.54-.09q-.75,0-1.62,0a14.54,14.54,0,0,0-1.92.12,11.68,11.68,0,0,1-1.73.13h-1.41a.39.39,0,0,1-.3-.14A.38.38,0,0,1,109.91,218.09Z" transform="translate(0 -8.05)"/><path class="cls-1" d="M126,191a.57.57,0,0,0,.11-.14,1.42,1.42,0,0,1,.21-.27l.75-.4.55-.27,1.14-.67a13.37,13.37,0,0,0,1.34-.93,6.5,6.5,0,0,0,1.12-1.1,1.82,1.82,0,0,0,.47-1.19s0-.1,0-.18a.15.15,0,0,0-.16-.13,3.81,3.81,0,0,1-.47.07,3.71,3.71,0,0,1-.47,0,5.54,5.54,0,0,1-.59,0,4.51,4.51,0,0,1-.53-.07.86.86,0,0,1-.35-.11,3.37,3.37,0,0,1-.45-.25c-.15-.11-.29-.21-.43-.33a2.29,2.29,0,0,1-.31-.29,2.22,2.22,0,0,1-.6-1.6,2.65,2.65,0,0,1,.75-2,2.75,2.75,0,0,1,2-.75,3.46,3.46,0,0,1,1.62.38,3.85,3.85,0,0,1,1.24,1,4.46,4.46,0,0,1,.79,1.4,5.1,5.1,0,0,1,.27,1.65,5.66,5.66,0,0,1-.64,2.74,5.74,5.74,0,0,1-1.84,2l-.87.58a6.16,6.16,0,0,1-1.06.53,10.69,10.69,0,0,1-1.39.46,5.29,5.29,0,0,1-1.25.16,2.34,2.34,0,0,1-.39,0A2.07,2.07,0,0,1,126,191Z" transform="translate(0 -8.05)"/><path class="cls-1" d="M149.2,214.61l-.13.1a3.08,3.08,0,0,0-.43.38l-.9.82-.94.84a2.17,2.17,0,0,1-.55.41,16.78,16.78,0,0,1-1.89.88,6.69,6.69,0,0,1-2.39.41,7,7,0,0,1-1.87-.26,4.23,4.23,0,0,1-1.67-.89,4.42,4.42,0,0,1-1.2-1.68,6.73,6.73,0,0,1-.46-2.69,5,5,0,0,1,.3-1.5,4.46,4.46,0,0,1,1-1.67,8,8,0,0,1,1.6-1.43,13.05,13.05,0,0,1,1.93-1,19.94,19.94,0,0,1,2.34-.81q1.28-.36,2.85-.75l.78-.18c.28-.06.54-.13.79-.2l.66-.2a1,1,0,0,0,.35-.16l.25-.18a.5.5,0,0,0,.14-.36c.07-.4.14-.82.2-1.27s.11-.89.15-1.34.08-.87.09-1.29,0-.78,0-1.11a4.59,4.59,0,0,0-.39-1.88,4.78,4.78,0,0,0-2.61-2.52,5,5,0,0,0-1.88-.36,4,4,0,0,0-1.63.37,5.79,5.79,0,0,0-1.54,1,5.52,5.52,0,0,0-1.14,1.41,3.28,3.28,0,0,0-.44,1.61.9.9,0,0,0,.21.62,5.93,5.93,0,0,0,.44.43,4,4,0,0,1,.45.47,1.11,1.11,0,0,1,.2.69,2.06,2.06,0,0,1-.67,1.65,2.45,2.45,0,0,1-1.67.6,2.13,2.13,0,0,1-1.06-.25,2.76,2.76,0,0,1-.8-.64,2.94,2.94,0,0,1-.51-.92,3.39,3.39,0,0,1-.17-1.05,2.55,2.55,0,0,1,.29-1.11,7.08,7.08,0,0,1,.71-1.16,10.14,10.14,0,0,1,.87-1.07c.3-.34.56-.61.77-.81q.57-.54,1.11-1c.36-.27.73-.55,1.13-.82a5,5,0,0,1,.92-.47c.31-.12.62-.22.91-.31s.41-.15.72-.24.64-.18,1-.27.76-.16,1.17-.22a8.25,8.25,0,0,1,1.19-.09,8.92,8.92,0,0,1,2.41.33,6.31,6.31,0,0,1,2.12,1.06,5.43,5.43,0,0,1,1.5,1.86,5.94,5.94,0,0,1,.57,2.7c0,1.17-.06,2.37-.18,3.59s-.26,2.39-.4,3.5-.29,2.14-.41,3.07a18.28,18.28,0,0,0-.18,2.24,10.29,10.29,0,0,0,.08,1.1,5.27,5.27,0,0,0,.3,1.26,3.07,3.07,0,0,0,.61,1,1.28,1.28,0,0,0,1,.44,3.2,3.2,0,0,0,1.41-.33,5.87,5.87,0,0,0,1.25-.85,7.92,7.92,0,0,0,1-1.14,7.66,7.66,0,0,0,.75-1.21c0-.07.07-.14.11-.22a.21.21,0,0,1,.2-.11c.07,0,.1.06.1.18v.25a6.44,6.44,0,0,1-.43,2.29,6.71,6.71,0,0,1-1.25,2.08,6.49,6.49,0,0,1-2,1.54,6.27,6.27,0,0,1-2.77.59,5.79,5.79,0,0,1-.67,0,2.73,2.73,0,0,1-.71-.17,4.69,4.69,0,0,1-1.13-.73,6.66,6.66,0,0,1-.77-.84,9.48,9.48,0,0,1-.6-.94Zm-8.28-.93a2.28,2.28,0,0,0,.26,1.11,2.32,2.32,0,0,0,.7.76,2.86,2.86,0,0,0,1,.44,4.61,4.61,0,0,0,1.1.14,6.43,6.43,0,0,0,1.32-.14,7.74,7.74,0,0,0,1.21-.37,9.53,9.53,0,0,0,1.06-.51c.32-.18.61-.35.87-.53a1.55,1.55,0,0,0,.66-1.16,25.55,25.55,0,0,1,.24-3.59,22.19,22.19,0,0,0,.25-3.31,1.84,1.84,0,0,0,0-.39.23.23,0,0,0-.25-.21,1.76,1.76,0,0,0-.45.07l-.41.11c-.76.28-1.51.58-2.24.91s-1.45.66-2.17,1a4.73,4.73,0,0,0-1.3,1,6.49,6.49,0,0,0-1,1.42,7.81,7.81,0,0,0-.6,1.61A6.66,6.66,0,0,0,140.92,213.68Z" transform="translate(0 -8.05)"/><path class="cls-1" d="M164.75,216.31,165.2,199a2.22,2.22,0,0,0-.09-.57,4.47,4.47,0,0,0-.25-.64,2.16,2.16,0,0,0-.37-.53.58.58,0,0,0-.42-.22,3.59,3.59,0,0,0-.9.1,6.73,6.73,0,0,0-.71.22l-.55.21a1.14,1.14,0,0,1-.37.09.32.32,0,0,1-.36-.36.77.77,0,0,1,.22-.44,1.84,1.84,0,0,1,.46-.36,2.86,2.86,0,0,1,.52-.27l.39-.17q.89-.24,1.62-.48c.49-.16,1-.34,1.41-.53s.9-.4,1.36-.63l1.48-.78a1.73,1.73,0,0,1,.63-.13c.21,0,.31.09.31.28a4.41,4.41,0,0,1-.05.64c0,.28-.07.56-.1.85s-.07.58-.11.84,0,.47,0,.61v.49a3.86,3.86,0,0,0,.09.84c.06.26.15.4.27.4s.34-.13.44-.37a3.13,3.13,0,0,1,.56-.85,11.85,11.85,0,0,1,1.72-1.66,14.18,14.18,0,0,1,2.11-1.38,13.19,13.19,0,0,1,2.34-.95,8.31,8.31,0,0,1,2.36-.36,9.29,9.29,0,0,1,1,.06,4.32,4.32,0,0,1,1.19.36,5.55,5.55,0,0,1,1.28.88,6.86,6.86,0,0,1,1.25,1.58,4.21,4.21,0,0,1,.17.43l.12.4c0,.14.08.3.13.49s.12.44.21.75.24.54.36.54.31-.18.39-.54a3.53,3.53,0,0,1,.6-1.23,7.59,7.59,0,0,1,.58-.68,11.77,11.77,0,0,1,3.09-2.45,8,8,0,0,1,3.88-.95,4.69,4.69,0,0,1,2.07.45,5.51,5.51,0,0,1,1.63,1.2,7.34,7.34,0,0,1,1.2,1.72,12.63,12.63,0,0,1,.81,2,14.27,14.27,0,0,1,.6,4.06v9.22a18.44,18.44,0,0,1-.13,2.26,18.52,18.52,0,0,0-.13,2,.86.86,0,0,0,.89.95h2.95a.3.3,0,0,1,.31.21c0,.12,0,.22.06.31a2.15,2.15,0,0,1,0,.23c0,.12,0,.24,0,.36s0,.23-.06.31-.22.19-.57.21-.71,0-1.1,0h-2.48c-.88,0-1.65,0-2.28,0l-1.7.09-1.38.09c-.43,0-.86,0-1.29,0h-1q-.81,0-.81-.72a.9.9,0,0,1,.09-.44,1.16,1.16,0,0,1,.23-.26,1.51,1.51,0,0,1,.38-.11l.65-.12.66-.09.45,0a.75.75,0,0,1,.26,0h.73c.3,0,.44-.16.44-.49V201a10.28,10.28,0,0,0-.18-2,5.24,5.24,0,0,0-.59-1.63,3,3,0,0,0-1.09-1.09,3.33,3.33,0,0,0-1.71-.4,8.06,8.06,0,0,0-2.73.44,5.86,5.86,0,0,0-2.05,1.21,5.21,5.21,0,0,0-1.29,1.82,5.5,5.5,0,0,0-.46,2.28v14.17a.66.66,0,0,0,.18.49,1.61,1.61,0,0,0,.45.3,2.44,2.44,0,0,0,.56.17l.51.07.6.06.44,0h.34a.75.75,0,0,1,.26.05.45.45,0,0,1,.28.26,1.79,1.79,0,0,1,0,.36.49.49,0,0,1-.21.43,1.47,1.47,0,0,1-.51.2,3.19,3.19,0,0,1-.63.08h-1.89l-1.38,0h-3l-1.37,0-1.21,0h-.81a3.15,3.15,0,0,1-.92-.13.62.62,0,0,1-.44-.67c0-.43.28-.66.83-.7a1.9,1.9,0,0,1,.4-.05h.44a5.85,5.85,0,0,0,.71,0,3.33,3.33,0,0,0,.67-.12,1.36,1.36,0,0,0,.51-.26.55.55,0,0,0,.2-.43l.31-15.57a3.85,3.85,0,0,0-.18-1.16,5.45,5.45,0,0,0-.6-1.21,5.15,5.15,0,0,0-.93-1.05,4.44,4.44,0,0,0-1.19-.75,3.37,3.37,0,0,0-1.38-.28,6.14,6.14,0,0,0-1.8.27,6,6,0,0,0-1.64.77A6.73,6.73,0,0,0,171,198.2a5.52,5.52,0,0,0-1,1.54c-.11.31-.21.62-.3.94a3.4,3.4,0,0,0-.15,1l-.36,14.23a2.57,2.57,0,0,0,.1.77.43.43,0,0,0,.45.33h3.08c.15,0,.24.05.27.16a1.21,1.21,0,0,1-.12.91.58.58,0,0,1-.57.3h-2.27l-2.12,0-1.76,0h-1.16c-.45,0-1,0-1.5,0s-1.15,0-1.82,0h-.7a.37.37,0,0,1-.3-.15.61.61,0,0,1-.12-.37.68.68,0,0,1,.15-.42.67.67,0,0,1,.45-.25,4.22,4.22,0,0,1,.76-.11l.76,0h1a1.55,1.55,0,0,0,.71-.15A.64.64,0,0,0,164.75,216.31Z" transform="translate(0 -8.05)"/><path class="cls-1" d="M205.71,206.29a12.62,12.62,0,0,1,.92-4.92,10.7,10.7,0,0,1,2.57-3.69,11.45,11.45,0,0,1,3.92-2.35,14.47,14.47,0,0,1,5-.82,6.94,6.94,0,0,1,1.25.12c.43.09.87.21,1.32.35s.87.32,1.3.51a11,11,0,0,1,1.19.59,11.42,11.42,0,0,1,4.63,4.41,12.31,12.31,0,0,1,1.53,6.18,12.68,12.68,0,0,1-.82,4.5,11.55,11.55,0,0,1-2.5,3.9,10.05,10.05,0,0,1-3.81,2.48,13.2,13.2,0,0,1-4.49.77,18.09,18.09,0,0,1-3.38-.31,8.29,8.29,0,0,1-3.3-1.47,12.6,12.6,0,0,1-4-4.46A12.44,12.44,0,0,1,205.71,206.29Zm4.46.12a14.83,14.83,0,0,0,.18,2.22,16.18,16.18,0,0,0,.56,2.39,15.06,15.06,0,0,0,1,2.31,9,9,0,0,0,1.4,2,6.27,6.27,0,0,0,1.88,1.38,5.42,5.42,0,0,0,2.37.51,5.72,5.72,0,0,0,1.46-.16,4.49,4.49,0,0,0,1.14-.48,5.1,5.1,0,0,0,.94-.74,9.85,9.85,0,0,0,.85-.94,10.62,10.62,0,0,0,1.25-2,16,16,0,0,0,.86-2.27,13.56,13.56,0,0,0,.48-2.31,16.77,16.77,0,0,0,.15-2.18,12.67,12.67,0,0,0-.21-2.17,13.38,13.38,0,0,0-.67-2.43,13.75,13.75,0,0,0-1.16-2.38,9.11,9.11,0,0,0-1.7-2.06,4.89,4.89,0,0,0-1.61-1.06,4.21,4.21,0,0,0-1.41-.33,8.47,8.47,0,0,0-2.14.24,5.21,5.21,0,0,0-1.62.73,6,6,0,0,0-1.29,1.24,14.9,14.9,0,0,0-1.19,1.76A9,9,0,0,0,210.4,203,25.55,25.55,0,0,0,210.17,206.41Z" transform="translate(0 -8.05)"/><path class="cls-1" d="M251,217.88a14.57,14.57,0,0,1,.16-1.85,16.2,16.2,0,0,0,.16-2.17,2.26,2.26,0,0,0-.07-.45.29.29,0,0,0-.3-.27c-.07,0-.15.09-.25.27a2.92,2.92,0,0,1-.38.56c-.55.61-1.11,1.19-1.67,1.74a12,12,0,0,1-1.77,1.43,8.29,8.29,0,0,1-2,1,8,8,0,0,1-2.42.35A7.27,7.27,0,0,1,240,218a7.08,7.08,0,0,1-2.19-1.31,4.65,4.65,0,0,1-1.06-1.12,5,5,0,0,1-.62-1.27,6.51,6.51,0,0,1-.3-1.42,13,13,0,0,1-.08-1.55v-15.2a3.11,3.11,0,0,0-.07-.71q-.06-.33-.48-.33h-4.07a.45.45,0,0,1-.39-.2.67.67,0,0,1-.16-.41,2.31,2.31,0,0,1,.06-.39.34.34,0,0,1,.36-.28h8.61q.42,0,.42.36V210a6.44,6.44,0,0,0,.3,1.94,5.58,5.58,0,0,0,.87,1.7,4.52,4.52,0,0,0,1.43,1.21,4,4,0,0,0,2,.46,9,9,0,0,0,2.21-.24,9.11,9.11,0,0,0,1.94-.79,6.26,6.26,0,0,0,1.93-1.85,5.41,5.41,0,0,0,.49-.83,4.29,4.29,0,0,0,.29-.77,6.78,6.78,0,0,0,.16-.83,9.55,9.55,0,0,0,.05-1l.29-12.78s0-.16,0-.32a2.58,2.58,0,0,0-.07-.53,1.74,1.74,0,0,0-.2-.5.41.41,0,0,0-.37-.22,5,5,0,0,0-.61.05c-.3,0-.66,0-1.06,0H247.7a5.9,5.9,0,0,1-.91-.05.36.36,0,0,1-.36-.38,2.68,2.68,0,0,1,0-.39.46.46,0,0,1,.21-.33,1.27,1.27,0,0,1,.54-.21,2.9,2.9,0,0,1,.58,0,6.48,6.48,0,0,1,.84,0l1,.1.94.11c.3,0,.56.05.79.05h5a.16.16,0,0,1,.18.18l-.81,20.28v.57a.76.76,0,0,0,.05.21,2.12,2.12,0,0,0,.37.79.93.93,0,0,0,.83.37,5,5,0,0,0,.74-.06q.39,0,.75-.12c.25-.06.48-.1.69-.13a3.15,3.15,0,0,1,.54-.06c.19,0,.31.07.35.21a1.41,1.41,0,0,1,.07.36.58.58,0,0,1-.22.48,3.89,3.89,0,0,1-.46.29,3.25,3.25,0,0,1-1,.19h-.53l-.69.06a16.28,16.28,0,0,0-1.82.34c-.65.15-1.23.31-1.73.46s-.7.25-1,.35a3.41,3.41,0,0,1-1,.14.5.5,0,0,1-.44-.23A.94.94,0,0,1,251,217.88Z" transform="translate(0 -8.05)"/><path class="cls-1" d="M266.6,216.26V202.14c0-.52,0-1.07,0-1.64a13.29,13.29,0,0,0-.11-1.61,5.68,5.68,0,0,0-.28-1.28,1.11,1.11,0,0,0-.54-.68,3.68,3.68,0,0,0-1.54-.29,9.53,9.53,0,0,0-1.11.06c-.34,0-.65.05-.92.05a.34.34,0,0,1-.24-.11.26.26,0,0,1-.1-.2c0-.19.06-.3.18-.34a5.75,5.75,0,0,1,1.64-.64c.56-.12,1.14-.28,1.73-.46l1.59-.49a7.76,7.76,0,0,0,1.49-.67,9.76,9.76,0,0,0,.86-.49,1.7,1.7,0,0,1,1-.26.4.4,0,0,1,.3.19.55.55,0,0,1,.14.3V195c0,.13,0,.3,0,.49s0,.37,0,.56,0,.37,0,.53,0,.28.05.35a.35.35,0,0,0,.08.15l0,0a.39.39,0,0,0,.29-.17l.3-.44q.17-.27.39-.6a3.26,3.26,0,0,1,.59-.67,9.08,9.08,0,0,1,1.1-.92,8.6,8.6,0,0,1,1.28-.73,7.93,7.93,0,0,1,1.36-.49,5.43,5.43,0,0,1,1.37-.18,12,12,0,0,1,2,.17,6.33,6.33,0,0,1,1.89.59,3.69,3.69,0,0,1,1.4,1.2,3.34,3.34,0,0,1,.54,2,2.59,2.59,0,0,1-.27,1.18,3,3,0,0,1-.73.93,3.37,3.37,0,0,1-1,.6,3.42,3.42,0,0,1-1.22.22,3.64,3.64,0,0,1-.89-.12,1.17,1.17,0,0,1-.6-.31,3.85,3.85,0,0,1-1.12-2c-.09-.47-.14-.86-.17-1.18a1.51,1.51,0,0,0-.21-.74,1,1,0,0,0-.56-.39,4.56,4.56,0,0,0-1.23-.12,3.21,3.21,0,0,0-1.39.35,5.84,5.84,0,0,0-1.33.89,6.34,6.34,0,0,0-1.06,1.2,2.87,2.87,0,0,0-.52,1.28,5.74,5.74,0,0,0-.15,1.22c0,.44,0,.89,0,1.35v15.49a.77.77,0,0,0,.58.43,4.41,4.41,0,0,0,.94.09h.43l.57,0,.54,0,.31,0a3,3,0,0,1,1,.14.59.59,0,0,1,.38.61.74.74,0,0,1-.3.57,1.1,1.1,0,0,1-.59.28c-1-.15-1.94-.27-2.94-.33s-2-.11-3-.11-2,0-2.92.13-1.84.13-2.82.13a1.39,1.39,0,0,1-.66-.21.59.59,0,0,1-.38-.54.53.53,0,0,1,.13-.36.87.87,0,0,1,.32-.24,2.74,2.74,0,0,1,.4-.15,1.48,1.48,0,0,1,.32-.05,5.12,5.12,0,0,1,.56,0l.59.05a3.73,3.73,0,0,0,.5.08,4.18,4.18,0,0,0,.49,0,1,1,0,0,0,.35-.07,2.65,2.65,0,0,0,.4-.22,1.89,1.89,0,0,0,.32-.31A.54.54,0,0,0,266.6,216.26Z" transform="translate(0 -8.05)"/></svg>
